<svg xmlns="http://www.w3.org/2000/svg" xmlns:xlink="http://www.w3.org/1999/xlink" width="500" zoomAndPan="magnify" viewBox="0 0 375.12 383.03998" height="500" preserveAspectRatio="xMidYMid meet" version="1.0"><defs><g/><clipPath id="c79056b4b8"><path d="M 0.03125 0 L 374.09375 0 L 374.09375 374.0625 L 0.03125 374.0625 Z M 0.03125 0 " clip-rule="nonzero"/></clipPath><clipPath id="40a2915162"><rect x="0" width="293" y="0" height="86"/></clipPath><clipPath id="77b6c6c0bb"><path d="M 145.769531 152.246094 L 183.175781 152.246094 L 183.175781 173.191406 L 145.769531 173.191406 Z M 145.769531 152.246094 " clip-rule="nonzero"/></clipPath></defs><g clip-path="url(#c79056b4b8)"><path fill="#ffffff" d="M 0.03125 0 L 374.09375 0 L 374.09375 374.0625 L 0.03125 374.0625 Z M 0.03125 0 " fill-opacity="1" fill-rule="nonzero"/><path fill="#ffffff" d="M 0.03125 0 L 374.09375 0 L 374.09375 374.0625 L 0.03125 374.0625 Z M 0.03125 0 " fill-opacity="1" fill-rule="nonzero"/></g><g transform="matrix(1, 0, 0, 1, 39, 144)"><g clip-path="url(#40a2915162)"><g fill="#000000" fill-opacity="1"><g transform="translate(0.959277, 62.646271)"><g><path d="M 4.4375 0 L 4.4375 -30.6875 L 11.046875 -30.6875 L 11.921875 -27.53125 C 13.054688 -28.851562 14.429688 -29.84375 16.046875 -30.5 C 17.660156 -31.164062 19.441406 -31.5 21.390625 -31.5 C 25.910156 -31.5 29.28125 -29.828125 31.5 -26.484375 C 32.75 -28.078125 34.316406 -29.3125 36.203125 -30.1875 C 38.097656 -31.0625 40.210938 -31.5 42.546875 -31.5 C 46.484375 -31.5 49.609375 -30.28125 51.921875 -27.84375 C 54.242188 -25.414062 55.40625 -22.097656 55.40625 -17.890625 L 55.40625 0 L 46.53125 0 L 46.53125 -16.828125 C 46.53125 -19.015625 45.992188 -20.738281 44.921875 -22 C 43.847656 -23.269531 42.394531 -23.90625 40.5625 -23.90625 C 38.65625 -23.90625 37.132812 -23.242188 36 -21.921875 C 34.875 -20.597656 34.3125 -18.820312 34.3125 -16.59375 L 34.3125 0 L 25.546875 0 L 25.546875 -16.828125 C 25.546875 -19.015625 25.007812 -20.738281 23.9375 -22 C 22.863281 -23.269531 21.410156 -23.90625 19.578125 -23.90625 C 17.671875 -23.90625 16.148438 -23.242188 15.015625 -21.921875 C 13.890625 -20.597656 13.328125 -18.820312 13.328125 -16.59375 L 13.328125 0 Z M 4.4375 0 "/></g></g></g><g fill="#000000" fill-opacity="1"><g transform="translate(57.013505, 62.646271)"><g><path d="M 14.671875 0.578125 C 11.046875 0.578125 8.179688 -0.265625 6.078125 -1.953125 C 3.972656 -3.648438 2.921875 -5.976562 2.921875 -8.9375 C 2.921875 -11.78125 3.863281 -14.050781 5.75 -15.75 C 7.644531 -17.445312 10.191406 -18.296875 13.390625 -18.296875 L 24.484375 -18.296875 L 24.484375 -19.703125 C 24.484375 -21.222656 23.9375 -22.4375 22.84375 -23.34375 C 21.757812 -24.257812 20.34375 -24.71875 18.59375 -24.71875 C 17.144531 -24.71875 15.914062 -24.382812 14.90625 -23.71875 C 13.894531 -23.0625 13.253906 -22.191406 12.984375 -21.109375 L 4.4375 -21.109375 C 4.988281 -24.453125 6.5 -27.019531 8.96875 -28.8125 C 11.445312 -30.601562 14.632812 -31.5 18.53125 -31.5 C 23.125 -31.5 26.71875 -30.335938 29.3125 -28.015625 C 31.90625 -25.703125 33.203125 -22.519531 33.203125 -18.46875 L 33.203125 0 L 26.59375 0 L 25.609375 -3.5625 C 22.910156 -0.800781 19.265625 0.578125 14.671875 0.578125 Z M 11.6875 -9.296875 C 11.6875 -8.242188 12.144531 -7.394531 13.0625 -6.75 C 13.976562 -6.101562 15.195312 -5.78125 16.71875 -5.78125 C 18.9375 -5.78125 20.773438 -6.421875 22.234375 -7.703125 C 23.703125 -8.992188 24.472656 -10.675781 24.546875 -12.75 L 16.140625 -12.75 C 14.804688 -12.75 13.726562 -12.4375 12.90625 -11.8125 C 12.09375 -11.1875 11.6875 -10.347656 11.6875 -9.296875 Z M 11.6875 -9.296875 "/></g></g></g><g fill="#000000" fill-opacity="1"><g transform="translate(90.856333, 62.646271)"><g><path d="M 4.4375 0 L 4.4375 -43.25 L 13.328125 -43.25 L 13.328125 -28.34375 C 14.492188 -29.394531 15.851562 -30.179688 17.40625 -30.703125 C 18.96875 -31.234375 20.609375 -31.5 22.328125 -31.5 C 26.304688 -31.5 29.425781 -30.269531 31.6875 -27.8125 C 33.945312 -25.363281 35.078125 -22 35.078125 -17.71875 L 35.078125 0 L 26.1875 0 L 26.1875 -16.828125 C 26.1875 -19.085938 25.648438 -20.832031 24.578125 -22.0625 C 23.503906 -23.289062 22.015625 -23.90625 20.109375 -23.90625 C 18.078125 -23.90625 16.4375 -23.210938 15.1875 -21.828125 C 13.945312 -20.441406 13.328125 -18.546875 13.328125 -16.140625 L 13.328125 0 Z M 4.4375 0 "/></g></g></g><g fill="#000000" fill-opacity="1"><g transform="translate(126.569595, 62.646271)"><g><path d="M 4.4375 0 L 4.4375 -30.6875 L 11.046875 -30.6875 L 11.921875 -27.53125 C 13.054688 -28.851562 14.429688 -29.84375 16.046875 -30.5 C 17.660156 -31.164062 19.441406 -31.5 21.390625 -31.5 C 25.910156 -31.5 29.28125 -29.828125 31.5 -26.484375 C 32.75 -28.078125 34.316406 -29.3125 36.203125 -30.1875 C 38.097656 -31.0625 40.210938 -31.5 42.546875 -31.5 C 46.484375 -31.5 49.609375 -30.28125 51.921875 -27.84375 C 54.242188 -25.414062 55.40625 -22.097656 55.40625 -17.890625 L 55.40625 0 L 46.53125 0 L 46.53125 -16.828125 C 46.53125 -19.015625 45.992188 -20.738281 44.921875 -22 C 43.847656 -23.269531 42.394531 -23.90625 40.5625 -23.90625 C 38.65625 -23.90625 37.132812 -23.242188 36 -21.921875 C 34.875 -20.597656 34.3125 -18.820312 34.3125 -16.59375 L 34.3125 0 L 25.546875 0 L 25.546875 -16.828125 C 25.546875 -19.015625 25.007812 -20.738281 23.9375 -22 C 22.863281 -23.269531 21.410156 -23.90625 19.578125 -23.90625 C 17.671875 -23.90625 16.148438 -23.242188 15.015625 -21.921875 C 13.890625 -20.597656 13.328125 -18.820312 13.328125 -16.59375 L 13.328125 0 Z M 4.4375 0 "/></g></g></g><g fill="#000000" fill-opacity="1"><g transform="translate(182.623834, 62.646271)"><g><path d="M 19.515625 0.8125 C 16.128906 0.8125 13.140625 0.132812 10.546875 -1.21875 C 7.953125 -2.582031 5.925781 -4.484375 4.46875 -6.921875 C 3.007812 -9.359375 2.28125 -12.175781 2.28125 -15.375 C 2.28125 -18.570312 3.007812 -21.378906 4.46875 -23.796875 C 5.925781 -26.210938 7.953125 -28.097656 10.546875 -29.453125 C 13.140625 -30.816406 16.128906 -31.5 19.515625 -31.5 C 22.910156 -31.5 25.90625 -30.816406 28.5 -29.453125 C 31.09375 -28.097656 33.109375 -26.210938 34.546875 -23.796875 C 35.984375 -21.378906 36.703125 -18.570312 36.703125 -15.375 C 36.703125 -12.175781 35.984375 -9.359375 34.546875 -6.921875 C 33.109375 -4.484375 31.09375 -2.582031 28.5 -1.21875 C 25.90625 0.132812 22.910156 0.8125 19.515625 0.8125 Z M 11.046875 -15.375 C 11.046875 -12.875 11.832031 -10.828125 13.40625 -9.234375 C 14.988281 -7.640625 17.023438 -6.84375 19.515625 -6.84375 C 22.015625 -6.84375 24.039062 -7.640625 25.59375 -9.234375 C 27.15625 -10.828125 27.9375 -12.875 27.9375 -15.375 C 27.9375 -17.90625 27.15625 -19.957031 25.59375 -21.53125 C 24.039062 -23.113281 22.015625 -23.90625 19.515625 -23.90625 C 17.023438 -23.90625 14.988281 -23.113281 13.40625 -21.53125 C 11.832031 -19.957031 11.046875 -17.90625 11.046875 -15.375 Z M 11.046875 -15.375 "/></g></g></g><g fill="#000000" fill-opacity="1"><g transform="translate(218.395546, 62.646271)"><g><path d="M 19.515625 0.8125 C 16.128906 0.8125 13.140625 0.132812 10.546875 -1.21875 C 7.953125 -2.582031 5.925781 -4.484375 4.46875 -6.921875 C 3.007812 -9.359375 2.28125 -12.175781 2.28125 -15.375 C 2.28125 -18.570312 3.007812 -21.378906 4.46875 -23.796875 C 5.925781 -26.210938 7.953125 -28.097656 10.546875 -29.453125 C 13.140625 -30.816406 16.128906 -31.5 19.515625 -31.5 C 22.910156 -31.5 25.90625 -30.816406 28.5 -29.453125 C 31.09375 -28.097656 33.109375 -26.210938 34.546875 -23.796875 C 35.984375 -21.378906 36.703125 -18.570312 36.703125 -15.375 C 36.703125 -12.175781 35.984375 -9.359375 34.546875 -6.921875 C 33.109375 -4.484375 31.09375 -2.582031 28.5 -1.21875 C 25.90625 0.132812 22.910156 0.8125 19.515625 0.8125 Z M 11.046875 -15.375 C 11.046875 -12.875 11.832031 -10.828125 13.40625 -9.234375 C 14.988281 -7.640625 17.023438 -6.84375 19.515625 -6.84375 C 22.015625 -6.84375 24.039062 -7.640625 25.59375 -9.234375 C 27.15625 -10.828125 27.9375 -12.875 27.9375 -15.375 C 27.9375 -17.90625 27.15625 -19.957031 25.59375 -21.53125 C 24.039062 -23.113281 22.015625 -23.90625 19.515625 -23.90625 C 17.023438 -23.90625 14.988281 -23.113281 13.40625 -21.53125 C 11.832031 -19.957031 11.046875 -17.90625 11.046875 -15.375 Z M 11.046875 -15.375 "/></g></g></g><g fill="#000000" fill-opacity="1"><g transform="translate(254.167257, 62.646271)"><g><path d="M 17.890625 0.8125 C 14.847656 0.8125 12.15625 0.125 9.8125 -1.25 C 7.476562 -2.632812 5.640625 -4.546875 4.296875 -6.984375 C 2.953125 -9.421875 2.28125 -12.21875 2.28125 -15.375 C 2.28125 -18.53125 2.953125 -21.316406 4.296875 -23.734375 C 5.640625 -26.148438 7.476562 -28.046875 9.8125 -29.421875 C 12.15625 -30.804688 14.847656 -31.5 17.890625 -31.5 C 19.796875 -31.5 21.566406 -31.21875 23.203125 -30.65625 C 24.835938 -30.09375 26.316406 -29.304688 27.640625 -28.296875 L 27.640625 -43.25 L 36.53125 -43.25 L 36.53125 0 L 29.921875 0 L 28.875 -3.5 C 27.507812 -2.144531 25.890625 -1.085938 24.015625 -0.328125 C 22.148438 0.429688 20.109375 0.8125 17.890625 0.8125 Z M 11.046875 -15.375 C 11.046875 -12.875 11.832031 -10.828125 13.40625 -9.234375 C 14.988281 -7.640625 17.023438 -6.84375 19.515625 -6.84375 C 22.015625 -6.84375 24.039062 -7.640625 25.59375 -9.234375 C 27.15625 -10.828125 27.9375 -12.875 27.9375 -15.375 C 27.9375 -17.863281 27.15625 -19.90625 25.59375 -21.5 C 24.039062 -23.101562 22.015625 -23.90625 19.515625 -23.90625 C 17.023438 -23.90625 14.988281 -23.101562 13.40625 -21.5 C 11.832031 -19.90625 11.046875 -17.863281 11.046875 -15.375 Z M 11.046875 -15.375 "/></g></g></g></g></g><g clip-path="url(#77b6c6c0bb)"><path fill="#000000" d="M 180.960938 171.460938 C 180.824219 172.449219 179.972656 173.1875 178.96875 173.1875 C 173.320312 173.1875 155.621094 173.1875 149.972656 173.1875 C 148.96875 173.1875 148.117188 172.449219 147.980469 171.460938 C 147.53125 168.238281 146.550781 161.207031 145.871094 156.351562 C 145.769531 155.613281 146.148438 154.894531 146.816406 154.558594 C 147.484375 154.226562 148.292969 154.355469 148.820312 154.882812 C 150.664062 156.707031 152.800781 158.824219 154.21875 160.226562 C 154.617188 160.625 155.167969 160.835938 155.734375 160.808594 C 156.300781 160.777344 156.828125 160.515625 157.1875 160.078125 C 158.824219 158.09375 161.515625 154.835938 163.128906 152.882812 C 163.457031 152.480469 163.949219 152.25 164.472656 152.25 C 164.992188 152.25 165.484375 152.480469 165.8125 152.882812 C 167.425781 154.835938 170.117188 158.09375 171.753906 160.078125 C 172.113281 160.515625 172.640625 160.777344 173.207031 160.808594 C 173.773438 160.835938 174.324219 160.625 174.722656 160.226562 C 176.140625 158.824219 178.277344 156.707031 180.121094 154.882812 C 180.648438 154.355469 181.457031 154.226562 182.125 154.558594 C 182.792969 154.894531 183.171875 155.613281 183.070312 156.351562 C 182.390625 161.207031 181.410156 168.238281 180.960938 171.460938 Z M 180.960938 171.460938 " fill-opacity="1" fill-rule="evenodd"/></g><g fill="#000000" fill-opacity="1"><g transform="translate(117.544458, 226.305424)"><g><path d="M 6.421875 0 L 2.375 -4.484375 L 2.375 0 L 1.09375 0 L 1.09375 -9.828125 L 2.375 -9.828125 L 2.375 -5.28125 L 6.4375 -9.828125 L 8.0625 -9.828125 L 3.59375 -4.90625 L 8.09375 0 Z M 6.421875 0 "/></g></g></g><g fill="#000000" fill-opacity="1"><g transform="translate(137.238788, 226.305424)"><g/></g></g><g fill="#000000" fill-opacity="1"><g transform="translate(152.248878, 226.305424)"><g><path d="M 8.65625 -9.828125 L 8.65625 0 L 7.375 0 L 7.375 -4.453125 L 2.375 -4.453125 L 2.375 0 L 1.09375 0 L 1.09375 -9.828125 L 2.375 -9.828125 L 2.375 -5.515625 L 7.375 -5.515625 L 7.375 -9.828125 Z M 8.65625 -9.828125 "/></g></g></g><g fill="#000000" fill-opacity="1"><g transform="translate(173.255359, 226.305424)"><g/></g></g><g fill="#000000" fill-opacity="1"><g transform="translate(188.265449, 226.305424)"><g><path d="M 6.90625 -2.1875 L 2.609375 -2.1875 L 1.8125 0 L 0.46875 0 L 4.015625 -9.78125 L 5.5 -9.78125 L 9.046875 0 L 7.6875 0 Z M 6.53125 -3.234375 L 4.75 -8.203125 L 2.984375 -3.234375 Z M 6.53125 -3.234375 "/></g></g></g><g fill="#000000" fill-opacity="1"><g transform="translate(209.017971, 226.305424)"><g/></g></g><g fill="#000000" fill-opacity="1"><g transform="translate(224.028061, 226.305424)"><g><path d="M 8.8125 0 L 7.53125 0 L 2.375 -7.828125 L 2.375 0 L 1.09375 0 L 1.09375 -9.84375 L 2.375 -9.84375 L 7.53125 -2.03125 L 7.53125 -9.84375 L 8.8125 -9.84375 Z M 8.8125 0 "/></g></g></g><g fill="#000000" fill-opacity="1"><g transform="translate(245.193278, 226.305424)"><g/></g></g></svg>